<?xml version="1.0" encoding="iso-8859-1"?>
<!-- Generator: Adobe Illustrator 19.0.0, SVG Export Plug-In . SVG Version: 6.00 Build 0)  -->
<svg version="1.1" id="Capa_1" xmlns="http://www.w3.org/2000/svg" xmlns:xlink="http://www.w3.org/1999/xlink" x="0px" y="0px"
	 viewBox="0 0 511.866 511.866" style="enable-background:new 0 0 511.866 511.866;" xml:space="preserve">
<g>
	<path style="fill:#FDD7AD;" d="M467.148,83.667c-47.132-47.123-123.121-48.443-171.861-2.987l-3.072,2.987l-37.461,37.461
		l-35.072-34.987C171.938,38.431,94.767,37.785,46.232,84.69s-50.524,124.053-4.471,173.398c0.939,1.024,1.963,2.048,2.987,3.072
		l196.096,196.096c9.991,9.991,26.19,9.991,36.181,0c9.991-9.991,9.991-26.19,0-36.181c10.025,9.93,26.193,9.881,36.159-0.108
		s9.976-26.157,0.023-36.159c10.002,9.953,26.169,9.943,36.159-0.023s10.038-26.133,0.108-36.159
		c7.04,7.023,17.508,9.337,26.852,5.936c9.344-3.401,15.875-11.903,16.753-21.808l74.069-74.069l2.987-3.072
		C515.635,206.857,514.314,130.814,467.148,83.667z"/>
	<path style="fill:#CB9080;" d="M470.135,255.613l-2.987,3.072l-74.069,74.069c0.631-7.532-2.084-14.96-7.424-20.309
		L260.727,187.517l-36.181,36.181l-25.856,25.941c-3.682,3.706-8.422,6.18-13.568,7.083c-1.492,0.273-3.006,0.415-4.523,0.427
		c-6.809-0.021-13.338-2.718-18.176-7.509c-4.803-4.818-7.493-11.348-7.477-18.151c0.016-6.803,2.737-13.32,7.563-18.116
		L292.215,83.667l3.072-2.987c48.761-45.464,124.774-44.125,171.904,3.028S515.622,206.875,470.135,255.613z"/>
	<g>
		<path style="fill:#7F5B53;" d="M476.996,260.375c0.069-0.097,0.1-0.221,0.166-0.321c47.939-52.359,45.982-133.229-4.433-183.208
			s-131.298-51.234-183.239-2.842c-0.043,0.039-0.099,0.049-0.141,0.089l-0.171,0.171l-0.928,0.928
			c-0.717,0.689-1.438,1.372-2.144,2.078c-0.058,0.058-0.074,0.137-0.13,0.195L156.399,207.042
			c-13.312,13.314-13.312,34.899,0,48.213c6.397,6.415,15.09,10.009,24.149,9.984c0.4,0.014,0.801-0.014,1.195-0.085
			c6.524-0.183,12.847-2.291,18.176-6.059c1.695-1.111,3.268-2.399,4.693-3.84l19.883-19.797l12.117-12.117l52.395-52.395
			c15.462,15.729,35.983,25.491,57.941,27.563c23.998,0.334,46.954-9.789,62.891-27.733c1.598-1.594,2.496-3.759,2.496-6.016
			s-0.898-4.422-2.496-6.016c-3.353-3.328-8.764-3.328-12.117,0c-12.525,14.408-30.658,22.713-49.749,22.784
			c-29.867-1.451-52.053-27.989-52.224-28.16c-1.514-1.877-3.754-3.024-6.163-3.154c-2.408-0.13-4.759,0.768-6.467,2.471
			l-27.221,27.307l-36.181,36.181l-0.597,0.597c-0.504,0.276-0.918,0.691-1.195,1.195l-0.597,0.597l-24.747,24.661
			c-2.47,2.492-5.667,4.135-9.131,4.693c-7.334,1.313-14.67-2.292-18.112-8.901c-3.441-6.608-2.188-14.686,3.093-19.942
			L298.138,89.367l0.026-0.026l0.009-0.006c0.942-0.942,1.9-1.867,2.859-2.767c45.36-42.334,116.1-41.137,160.002,2.708
			s45.191,114.583,2.916,159.998l-0.009,0.006l-0.085,0.085l-65.707,65.792c3.212,6.652,4.2,14.162,2.816,21.419l72.277-72.277
			l1.877-1.963l0.295-0.354c0.257-0.27,0.524-0.533,0.779-0.805C476.467,260.911,476.759,260.659,476.996,260.375z"/>
		<path d="M286.156,77.608c-0.139,0.12-0.255,0.265-0.341,0.427l0.427-0.427H286.156z"/>
		<path style="fill:#F09372;" d="M398.199,315.517c-1.392-2.869-3.204-5.515-5.376-7.851c-0.345-0.448-0.715-0.875-1.109-1.28
			L272.844,187.517l-12.117,12.117l118.869,118.869c6.563,6.679,6.563,17.385,0,24.064c-6.521,6.495-17.018,6.646-23.723,0.341
			l-0.043-0.034l-0.043-0.051c-0.085-0.085-0.256-0.171-0.341-0.256L236.663,223.699l-12.117,12.117l118.869,118.869l0.015,0.012
			c6.609,6.681,6.574,17.448-0.078,24.086c-6.652,6.638-17.419,6.65-24.086,0.027v-0.062L199.969,259.453
			c-5.329,3.768-11.652,5.875-18.176,6.059l125.355,125.355h0.043l0.007,0.011c6.661,6.665,6.659,17.467-0.004,24.13
			c-6.663,6.663-17.465,6.664-24.13,0.004l-150.85-150.85c-2.156-2.156-5.297-2.997-8.242-2.208
			c-2.944,0.789-5.244,3.089-6.033,6.033c-0.789,2.944,0.053,6.086,2.208,8.242l150.85,150.85c6.643,6.671,6.632,17.46-0.025,24.117
			c-6.657,6.657-17.446,6.668-24.117,0.025L49.909,254.263c-0.634-0.659-1.258-1.318-1.918-1.978
			C5.09,206.329,6.947,134.467,52.163,90.788S169.262,47.737,213.708,92.2l29.013,29.013l12.032-12.117L225.74,80.168
			C174.946,29.33,92.845,28.375,40.883,78.018s-54.756,131.702-6.289,184.763c0.268,0.391,0.568,0.759,0.895,1.102
			c0.078,0.084,0.102,0.196,0.184,0.278L234.79,463.286c10.022,10.107,25.28,12.9,38.232,6.998
			c12.952-5.902,20.856-19.249,19.803-33.444c0.771,0.052,1.534,0.22,2.306,0.22c9.447,0.034,18.479-3.88,24.915-10.795
			c6.436-6.916,9.691-16.205,8.98-25.625c0.771,0.052,1.533,0.22,2.306,0.22c9.426,0.035,18.441-3.858,24.877-10.745
			c6.436-6.887,9.711-16.144,9.039-25.546l0.099,0.014c0.737,0.071,1.478,0.099,2.219,0.085c9.056,0.009,17.744-3.583,24.149-9.984
			c4.769-4.846,8.004-10.99,9.301-17.664v-0.085C402.398,329.679,401.411,322.17,398.199,315.517z"/>
	</g>
</g>
<g>
</g>
<g>
</g>
<g>
</g>
<g>
</g>
<g>
</g>
<g>
</g>
<g>
</g>
<g>
</g>
<g>
</g>
<g>
</g>
<g>
</g>
<g>
</g>
<g>
</g>
<g>
</g>
<g>
</g>
</svg>
